#Comment line ignore any data following # character 
#Hierarchical Translation and Rotation (.htr) file 
[Header]	
#Header keywords are followed by a single value 
FileType HTR		#Single word string
DataType HTRS		#Translation followed by rotation and scale data
FileVersion 1		#integer
NumSegments 64		#integer
NumFrames 3		#integer
DataFrameRate 30		#integer, data frame rate in this file
EulerRotationOrder ZYX
CalibrationUnits mm
RotationUnits Degrees
GlobalAxisofGravity Y
BoneLengthAxis Y
ScaleFactor 1.00
[SegmentNames&Hierarchy]
#CHILD	PARENT
Pinger_Root GLOBAL
Pelvis Pinger_Root
L_Hip Pelvis
R_Hip Pelvis
Rear_Leg01 Pelvis
Spine1 Pelvis
L_Leg01 L_Hip
L_Leg02 L_Leg01
L_Leg03 L_Leg02
L_Foot L_Leg03
L_Toe1_01 L_Foot
L_Toe2_01 L_Foot
L_Toe3_01 L_Foot
planeAlignerLeft L_Foot
L_Toe1_02 L_Toe1_01
L_Toe1_03 L_Toe1_02
L_Toe2_02 L_Toe2_01
L_Toe2_03 L_Toe2_02
L_Toe3_02 L_Toe3_01
L_Toe3_03 L_Toe3_02
planeLockWeightLeft planeAlignerLeft
R_Leg01 R_Hip
R_Leg02 R_Leg01
R_Leg03 R_Leg02
R_Foot R_Leg03
planeAlignerRight R_Foot
R_Toe1_01 R_Foot
R_Toe2_01 R_Foot
R_Toe3_01 R_Foot
planeLockWeightRight planeAlignerRight
R_Toe1_02 R_Toe1_01
R_Toe1_03 R_Toe1_02
R_Toe2_02 R_Toe2_01
R_Toe2_03 R_Toe2_02
R_Toe3_02 R_Toe3_01
R_Toe3_03 R_Toe3_02
Rear_Leg02 Rear_Leg01
Rear_Leg03 Rear_Leg02
Rear_Leg04 Rear_Leg03
Rear_Foot Rear_Leg04
planeAlignerCenter Rear_Foot
Rear_Toe1_01 Rear_Foot
Rear_Toe2_01 Rear_Foot
Rear_Toe3_01 Rear_Foot
planeLockWeightCenter planeAlignerCenter
Rear_Toe1_02 Rear_Toe1_01
Rear_Toe1_03 Rear_Toe1_02
Rear_Toe2_02 Rear_Toe2_01
Rear_Toe2_03 Rear_Toe2_02
Rear_Toe3_02 Rear_Toe3_01
Rear_Toe3_03 Rear_Toe3_02
Back_Bone Spine1
Head Spine1
Motor_Bone Back_Bone
Ping_Mechanism Back_Bone
BN_LookIK Head
bottomMouth Head
L_Mouth01 Head
L_mouthFront Head
mouthGun Head
R_Mouth01 Head
R_mouthFront Head
TopMouth Head
weapon_bone Head
[BasePosition]
#SegmentName Tx, Ty, Tz, Rx, Ry, Rz, BoneLength
Pinger_Root 0.000000 0.000000 0.000000 -90.000000 0.000000 0.000000 10.000000 
Pelvis 0.000000 0.000000 0.000000 0.000000 0.000000 0.000000 10.000000 
L_Hip 0.000000 0.000000 0.000000 0.000000 0.000000 0.000000 10.000000 
R_Hip 0.000000 0.000000 0.000000 0.000000 0.000000 0.000000 10.000000 
Rear_Leg01 0.000000 0.000000 0.000000 0.000000 0.000000 0.000000 10.000000 
Spine1 0.000000 0.000000 0.000000 0.000000 0.000000 0.000000 10.000000 
L_Leg01 0.000000 0.000000 0.000000 0.000000 0.000000 0.000000 10.000000 
L_Leg02 0.000000 0.000000 0.000000 0.000000 0.000000 0.000000 10.000000 
L_Leg03 0.000000 0.000000 0.000000 0.000000 0.000000 0.000000 10.000000 
L_Foot 0.000000 0.000000 0.000000 0.000000 0.000000 0.000000 10.000000 
L_Toe1_01 0.000000 0.000000 0.000000 0.000000 0.000000 0.000000 10.000000 
L_Toe2_01 0.000000 0.000000 0.000000 0.000000 0.000000 0.000000 10.000000 
L_Toe3_01 0.000000 0.000000 0.000000 0.000000 0.000000 0.000000 10.000000 
planeAlignerLeft 0.000000 0.000000 0.000000 0.000000 0.000000 0.000000 10.000000 
L_Toe1_02 0.000000 0.000000 0.000000 0.000000 0.000000 0.000000 10.000000 
L_Toe1_03 0.000000 0.000000 0.000000 0.000000 0.000000 0.000000 10.000000 
L_Toe2_02 0.000000 0.000000 0.000000 0.000000 0.000000 0.000000 10.000000 
L_Toe2_03 0.000000 0.000000 0.000000 0.000000 0.000000 0.000000 10.000000 
L_Toe3_02 0.000000 0.000000 0.000000 0.000000 0.000000 0.000000 10.000000 
L_Toe3_03 0.000000 0.000000 0.000000 0.000000 0.000000 0.000000 10.000000 
planeLockWeightLeft 0.000000 0.000000 0.000000 0.000000 0.000000 0.000000 10.000000 
R_Leg01 0.000000 0.000000 0.000000 0.000000 0.000000 0.000000 10.000000 
R_Leg02 0.000000 0.000000 0.000000 0.000000 0.000000 0.000000 10.000000 
R_Leg03 0.000000 0.000000 0.000000 0.000000 0.000000 0.000000 10.000000 
R_Foot 0.000000 0.000000 0.000000 0.000000 0.000000 0.000000 10.000000 
planeAlignerRight 0.000000 0.000000 0.000000 0.000000 0.000000 0.000000 10.000000 
R_Toe1_01 0.000000 0.000000 0.000000 0.000000 0.000000 0.000000 10.000000 
R_Toe2_01 0.000000 0.000000 0.000000 0.000000 0.000000 0.000000 10.000000 
R_Toe3_01 0.000000 0.000000 0.000000 0.000000 0.000000 0.000000 10.000000 
planeLockWeightRight 0.000000 0.000000 0.000000 0.000000 0.000000 0.000000 10.000000 
R_Toe1_02 0.000000 0.000000 0.000000 0.000000 0.000000 0.000000 10.000000 
R_Toe1_03 0.000000 0.000000 0.000000 0.000000 0.000000 0.000000 10.000000 
R_Toe2_02 0.000000 0.000000 0.000000 0.000000 0.000000 0.000000 10.000000 
R_Toe2_03 0.000000 0.000000 0.000000 0.000000 0.000000 0.000000 10.000000 
R_Toe3_02 0.000000 0.000000 0.000000 0.000000 0.000000 0.000000 10.000000 
R_Toe3_03 0.000000 0.000000 0.000000 0.000000 0.000000 0.000000 10.000000 
Rear_Leg02 0.000000 0.000000 0.000000 0.000000 0.000000 0.000000 10.000000 
Rear_Leg03 0.000000 0.000000 0.000000 0.000000 0.000000 0.000000 10.000000 
Rear_Leg04 0.000000 0.000000 0.000000 0.000000 0.000000 0.000000 10.000000 
Rear_Foot 0.000000 0.000000 0.000000 0.000000 0.000000 0.000000 10.000000 
planeAlignerCenter 0.000000 0.000000 0.000000 0.000000 0.000000 0.000000 10.000000 
Rear_Toe1_01 0.000000 0.000000 0.000000 0.000000 0.000000 0.000000 10.000000 
Rear_Toe2_01 0.000000 0.000000 0.000000 0.000000 0.000000 0.000000 10.000000 
Rear_Toe3_01 0.000000 0.000000 0.000000 0.000000 0.000000 0.000000 10.000000 
planeLockWeightCenter 0.000000 0.000000 0.000000 0.000000 0.000000 0.000000 10.000000 
Rear_Toe1_02 0.000000 0.000000 0.000000 0.000000 0.000000 0.000000 10.000000 
Rear_Toe1_03 0.000000 0.000000 0.000000 0.000000 0.000000 0.000000 10.000000 
Rear_Toe2_02 0.000000 0.000000 0.000000 0.000000 0.000000 0.000000 10.000000 
Rear_Toe2_03 0.000000 0.000000 0.000000 0.000000 0.000000 0.000000 10.000000 
Rear_Toe3_02 0.000000 0.000000 0.000000 0.000000 0.000000 0.000000 10.000000 
Rear_Toe3_03 0.000000 0.000000 0.000000 0.000000 0.000000 0.000000 10.000000 
Back_Bone 0.000000 0.000000 0.000000 0.000000 0.000000 0.000000 10.000000 
Head 0.000000 0.000000 0.000000 0.000000 0.000000 0.000000 10.000000 
Motor_Bone 0.000000 0.000000 0.000000 0.000000 0.000000 0.000000 10.000000 
Ping_Mechanism 0.000000 0.000000 0.000000 0.000000 0.000000 0.000000 10.000000 
BN_LookIK 0.000000 0.000000 0.000000 0.000000 0.000000 0.000000 10.000000 
bottomMouth 0.000000 0.000000 0.000000 0.000000 0.000000 0.000000 10.000000 
L_Mouth01 0.000000 0.000000 0.000000 0.000000 0.000000 0.000000 10.000000 
L_mouthFront 0.000000 0.000000 0.000000 0.000000 0.000000 0.000000 10.000000 
mouthGun 0.000000 0.000000 0.000000 0.000000 0.000000 0.000000 10.000000 
R_Mouth01 0.000000 0.000000 0.000000 0.000000 0.000000 0.000000 10.000000 
R_mouthFront 0.000000 0.000000 0.000000 0.000000 0.000000 0.000000 10.000000 
TopMouth 0.000000 0.000000 0.000000 0.000000 0.000000 0.000000 10.000000 
weapon_bone 0.000000 0.000000 0.000000 0.000000 0.000000 0.000000 10.000000 
#Beginning of Data. Separated by tabs
#Fr	Tx	Ty	Tz	Rx	Ry	Rz	SF
[Pinger_Root]
36 -0.000020 -2500.000000 0.000000 -0.000075 -0.000000 -0.000020 2500.000000
37 -0.000020 -2500.000000 0.000000 -0.000075 -0.000000 -0.000020 2500.000000
38 -0.000020 -2500.000000 0.000000 -0.000075 -0.000000 -0.000020 2500.000000
[Pelvis]
36 404.374207 1068.923462 4308.804688 -99.362099 -83.441620 123.956062 4457.792480
37 402.872559 1059.002319 4333.994629 -108.069336 -81.432480 131.992813 4479.654297
38 398.546265 1050.574707 4361.441406 -111.609825 -79.554298 133.935455 4503.855957
[L_Hip]
36 5.766392 125.831482 872.656799 -178.253311 -81.787758 87.381340 881.701050
37 5.766392 125.831482 872.656799 -178.253311 -81.787712 87.381248 881.701050
38 5.766392 125.831482 872.656799 -178.253342 -81.787758 87.381340 881.701050
[R_Hip]
36 5.765438 125.836372 -872.654907 -1.746690 81.787712 87.381248 881.699829
37 5.765438 125.836372 -872.654907 -1.746713 81.787666 87.381149 881.699829
38 5.765438 125.836372 -872.654907 -1.746678 81.787712 87.381248 881.699829
[Rear_Leg01]
36 -192.298416 -925.602966 -0.001907 164.685623 -51.031559 -169.159256 945.367432
37 -192.298416 -925.602966 -0.001907 165.321533 -50.787281 -171.147522 945.367432
38 -192.298416 -925.602966 -0.001907 164.449203 -49.994862 -171.732346 945.367432
[Spine1]
36 290.604584 5.007505 0.000477 -23.647205 13.963190 22.765257 290.647736
37 290.604584 5.007505 0.000477 -22.366949 15.127041 21.502102 290.647736
38 290.604584 5.007505 0.000477 -20.448940 15.454444 20.435482 290.647736
[L_Leg01]
36 761.932007 -0.002384 -0.069261 85.392883 -41.432636 -74.219666 761.932068
37 761.932007 -0.002384 -0.069261 82.835609 -43.091846 -71.534782 761.932068
38 761.932007 -0.002384 -0.069261 78.896233 -44.324974 -68.489792 761.932068
[L_Leg02]
36 1441.140503 -0.000954 -0.000715 3.698099 0.378714 -97.233109 1441.140503
37 1441.140503 -0.000954 -0.000715 3.638420 0.348615 -95.970329 1441.140503
38 1441.140503 -0.000954 -0.000715 3.604589 0.335088 -95.598373 1441.140503
[L_Leg03]
36 1686.963989 -0.000715 -0.000954 -0.076186 0.039296 130.510895 1686.963989
37 1686.963989 -0.000715 -0.000954 -0.076245 0.039182 130.339249 1686.963989
38 1686.963989 -0.000715 -0.000954 -0.076304 0.039068 130.167587 1686.963989
[L_Foot]
36 3041.570068 -30.715107 11.297464 -8.153125 11.186112 22.223124 3041.746094
37 3041.570068 -30.715107 11.297464 -6.340682 10.238741 19.073179 3041.746094
38 3041.570068 -30.715107 11.297464 -4.339482 9.316145 16.803631 3041.746094
[L_Toe1_01]
36 -188.216690 -224.732346 -21.137953 87.908012 1.030063 -144.827927 293.899567
37 -188.216690 -224.732346 -21.137953 88.657547 -1.666566 -140.028183 293.899567
38 -188.216690 -224.732346 -21.137953 88.339439 -0.739243 -140.001755 293.899567
[L_Toe2_01]
36 200.746536 -219.926590 148.838394 -73.339249 -4.009836 -75.096619 332.896027
37 200.746536 -219.926590 148.838394 -73.430054 -3.849064 -74.717064 332.896027
38 200.746536 -219.926590 148.838394 -73.519760 -3.687702 -74.337830 332.896027
[L_Toe3_01]
36 188.832520 -219.859131 -191.078659 -111.176720 4.688948 -76.203789 347.140900
37 188.832520 -219.859131 -191.078659 -111.037369 4.391513 -75.796440 347.140900
38 188.832520 -219.859131 -191.078659 -110.900162 4.093099 -75.389977 347.140900
[planeAlignerLeft]
36 37.090904 -767.345825 0.714863 0.000000 -89.897209 -90.094627 768.242065
37 50.775906 -770.367371 -1.610081 0.000000 -89.895325 -90.097290 772.040588
38 68.221474 -771.582886 -1.527788 0.000000 -89.888092 -90.099945 774.594543
[L_Toe1_02]
36 413.761139 0.000477 0.000000 0.001451 -17.920300 0.001451 413.761139
37 413.761139 0.000477 0.000000 0.001460 -17.014612 0.001460 413.761139
38 413.761139 0.000477 0.000000 0.001460 -17.014603 0.001460 413.761139
[L_Toe1_03]
36 464.317322 0.000358 -0.000089 -179.992844 82.594101 -179.989349 464.317322
37 464.317322 0.000358 -0.000089 -179.995316 79.767418 -179.991791 464.317322
38 464.317322 0.000358 -0.000089 -179.995316 79.760941 -179.991806 464.317322
[L_Toe2_02]
36 342.235809 -0.000477 0.000238 0.001180 -78.169479 0.001180 342.235809
37 342.235809 -0.000477 0.000238 0.001180 -77.737579 0.001180 342.235809
38 342.235809 -0.000477 0.000238 0.001181 -77.305573 0.001181 342.235809
[L_Toe2_03]
36 420.210846 -0.000715 0.000000 -179.997391 74.930382 -179.993851 420.210846
37 420.210846 -0.000715 0.000000 -179.996841 76.602432 -179.993317 420.210846
38 420.210846 -0.000715 0.000000 -179.996124 78.273727 -179.992615 420.210846
[L_Toe3_02]
36 329.270111 0.000954 0.000000 0.001177 -81.808510 0.001177 329.270111
37 329.270111 0.000954 0.000000 0.001177 -81.441452 0.001177 329.270111
38 329.270111 0.000954 0.000000 0.001177 -81.074409 0.001177 329.270111
[L_Toe3_03]
36 439.137451 -0.001907 0.000954 -179.997940 72.708481 -179.994400 439.137451
37 439.137451 -0.001907 0.000954 -179.997574 74.221085 -179.994049 439.137451
38 439.137451 -0.001907 0.000954 -179.997131 75.733192 -179.993607 439.137451
[planeLockWeightLeft]
36 0.000229 0.000000 -0.000286 -0.011826 -0.004376 0.005620 0.000366
37 0.000229 0.000000 -0.000291 -0.011826 -0.004376 0.005620 0.000370
38 0.000229 0.000000 -0.000296 -0.011826 -0.004376 0.005620 0.000374
[R_Leg01]
36 761.455627 -0.001907 -0.000358 141.600281 -20.761881 45.603058 761.455688
37 761.455627 -0.001907 -0.000358 142.808395 -20.892332 49.507942 761.455688
38 761.455627 -0.001907 -0.000358 143.074081 -21.922350 52.555355 761.455688
[R_Leg02]
36 1441.140625 0.000000 -0.000238 -0.417783 -0.013185 -137.154694 1441.140625
37 1441.140625 0.000000 -0.000238 -0.407320 -0.015334 -134.288345 1441.140625
38 1441.140625 0.000000 -0.000238 -0.396978 -0.018004 -131.422028 1441.140625
[R_Leg03]
36 1686.963989 0.000954 0.001431 0.011843 -0.006068 113.788269 1686.963989
37 1686.963989 0.000954 0.001431 0.018554 -0.007825 115.736725 1686.963989
38 1686.963989 0.000954 0.001431 0.023159 -0.010957 117.012764 1686.963989
[R_Foot]
36 3041.560059 -30.531288 -11.204481 18.079638 -9.319937 67.108894 3041.734131
37 3041.560059 -30.531288 -11.204481 16.849140 -8.496651 65.865280 3041.734131
38 3041.560059 -30.531288 -11.204481 15.873831 -7.728541 64.353691 3041.734131
[planeAlignerRight]
36 -72.547844 -619.274353 -224.143799 0.000000 -89.891647 -90.071693 662.574097
37 -54.446003 -643.277405 -175.092728 0.000000 -89.889854 -90.073608 668.900330
38 -49.039997 -669.094971 -155.404053 0.000000 -89.888092 -90.075516 688.653381
[R_Toe1_01]
36 -188.383347 -224.864899 21.052242 90.694099 6.507167 -157.774170 294.101532
37 -188.383347 -224.864899 21.052242 90.710663 4.231440 -157.362335 294.101532
38 -188.383347 -224.864899 21.052242 90.807358 3.271699 -155.710205 294.101532
[R_Toe2_01]
36 200.637817 -220.002121 -148.787384 -101.998375 11.350542 -45.534317 332.857574
37 200.637817 -220.002121 -148.787384 -101.427818 8.261240 -46.671707 332.857574
38 200.637817 -220.002121 -148.787384 -101.463135 6.950919 -48.273827 332.857574
[R_Toe3_01]
36 188.606735 -220.092957 191.126343 -66.310303 -33.356781 -55.828278 347.192566
37 188.606735 -220.092957 191.126343 -63.959545 -33.292240 -59.554920 347.192566
38 188.606735 -220.092957 191.126343 -62.877781 -32.624676 -62.105202 347.192566
[planeLockWeightRight]
36 999.999756 0.000055 -0.000361 -0.011823 -0.004379 -0.000027 999.999756
37 999.999756 0.000061 -0.000362 -0.011823 -0.004379 -0.000027 999.999756
38 999.999756 0.000067 -0.000364 -0.011823 -0.004379 -0.000027 999.999756
[R_Toe1_02]
36 413.762085 0.000477 -0.000119 0.001384 -25.946947 0.001384 413.762085
37 413.762085 0.000477 -0.000119 0.001384 -25.931728 0.001384 413.762085
38 413.762085 0.000477 -0.000119 0.001385 -25.916502 0.001385 413.762085
[R_Toe1_03]
36 464.317810 0.000000 0.001088 0.004061 56.401817 0.004061 464.317810
37 464.317810 0.000000 0.001088 0.004429 59.266529 0.004429 464.317810
38 464.317810 0.000000 0.001088 0.004265 58.052567 0.004265 464.317810
[R_Toe2_02]
36 342.234741 -0.000954 0.000238 -0.000228 -72.716637 -0.000228 342.234741
37 342.234741 -0.000954 0.000238 0.000481 -71.633034 0.000481 342.234741
38 342.234741 -0.000954 0.000238 0.001191 -70.549744 0.001191 342.234741
[R_Toe2_03]
36 420.210846 0.000715 -0.000268 0.005548 86.817215 0.003445 420.210846
37 420.210846 0.000715 -0.000268 0.009423 83.751640 0.008019 420.210846
38 420.210846 0.000715 -0.000268 0.010516 80.688179 0.009814 420.210846
[R_Toe3_02]
36 329.270355 -0.000477 -0.000954 0.001177 -81.769318 0.001177 329.270355
37 329.270355 -0.000477 -0.000954 0.001178 -79.621361 0.001178 329.270355
38 329.270355 -0.000477 -0.000954 0.001180 -77.957687 0.001180 329.270355
[R_Toe3_03]
36 439.137939 0.000238 0.001431 -179.997910 72.921707 -179.994370 439.137939
37 439.137939 0.000238 0.001431 -179.993713 81.812950 -179.990204 439.137939
38 439.137939 0.000238 0.001431 -179.996109 86.957016 -179.993484 439.137939
[Rear_Leg02]
36 1162.777710 -0.029802 0.005960 -9.849489 62.771919 -133.734451 1162.777710
37 1162.777710 -0.029802 0.005960 -7.818229 61.252743 -131.402664 1162.777710
38 1162.777710 -0.029802 0.005960 -5.395875 60.333836 -128.242920 1162.777710
[Rear_Leg03]
36 607.192505 -0.013351 -0.073195 0.010098 -0.005847 76.501305 607.192505
37 607.192505 -0.013351 -0.073195 0.010115 -0.005819 76.180260 607.192505
38 607.192505 -0.013351 -0.073195 0.010131 -0.005791 75.859222 607.192505
[Rear_Leg04]
36 995.874512 -0.020504 -0.011921 -0.042788 -0.018284 87.882156 995.874573
37 995.874512 -0.020504 -0.011921 -0.042603 -0.018699 86.762695 995.874573
38 995.874512 -0.020504 -0.011921 -0.044221 -0.017468 85.556580 995.874573
[Rear_Foot]
36 3096.176270 -0.067472 -0.041425 88.848862 43.542999 -98.133675 3096.176270
37 3096.176270 -0.067472 -0.041425 88.736931 44.460945 -98.476479 3096.176270
38 3096.176270 -0.067472 -0.041425 88.044701 44.911880 -99.505928 3096.176270
[planeAlignerCenter]
36 -39.644516 107.320465 -752.369446 0.001729 -0.001588 175.156235 761.018494
37 -35.424850 105.169701 -743.829895 0.001713 -0.001605 176.291351 752.062805
38 -27.704939 102.562798 -735.709595 0.001697 -0.001622 177.426346 743.340637
[Rear_Toe1_01]
36 0.653352 83.966492 -371.173737 0.985662 26.129623 87.567680 380.553192
37 0.653352 83.966492 -371.173737 0.863210 25.504753 88.495621 380.553192
38 0.653352 83.966492 -371.173737 0.691892 24.856070 88.925003 380.553192
[Rear_Toe2_01]
36 178.200760 -294.826019 -362.060547 -2.067712 50.143341 -80.531609 499.765686
37 178.200760 -294.826019 -362.060547 -1.423026 49.541924 -78.200989 499.765686
38 178.200760 -294.826019 -362.060547 -0.824324 48.924603 -75.910721 499.765686
[Rear_Toe3_01]
36 -153.359680 -308.780914 -362.060852 -5.496635 50.077312 -125.152901 499.952881
37 -153.359680 -308.780914 -362.060852 -4.674578 49.512821 -122.737190 499.952881
38 -153.359680 -308.780914 -362.060852 -3.898737 48.926495 -120.361320 499.952881
[planeLockWeightCenter]
36 1000.000366 0.000470 -0.000075 -0.011814 -0.004373 -0.000015 1000.000366
37 1000.000366 0.000475 -0.000076 -0.011814 -0.004373 -0.000015 1000.000366
38 1000.000366 0.000481 -0.000077 -0.011814 -0.004373 -0.000015 1000.000366
[Rear_Toe1_02]
36 379.707825 0.194073 0.000477 -0.001884 -33.220501 0.005470 379.707855
37 379.707825 0.194073 0.000477 -0.002193 -33.259415 0.005166 379.707855
38 379.707825 0.194073 0.000477 -0.002501 -33.298325 0.004862 379.707855
[Rear_Toe1_03]
36 500.129700 0.165701 0.000119 -0.002948 63.284489 0.000134 500.129761
37 500.129700 0.165701 0.000119 -0.001621 64.391182 0.000942 500.129761
38 500.129700 0.165701 0.000119 -0.000200 65.498108 0.001846 500.129761
[Rear_Toe2_02]
36 340.494507 0.000238 -0.000954 0.001174 -85.680855 0.001174 340.494507
37 340.494507 0.000238 -0.000954 -0.011213 -85.807732 0.012687 340.494507
38 340.494507 0.000238 -0.000954 -0.024345 -85.934464 0.024944 340.494507
[Rear_Toe2_03]
36 433.103577 0.000000 0.000238 179.986969 79.661385 179.986969 433.103546
37 433.103577 0.000000 0.000238 179.987991 78.784813 179.987991 433.103546
38 433.103577 0.000000 0.000238 179.997910 78.436905 179.996155 433.103546
[Rear_Toe3_02]
36 340.494141 -0.000358 -0.000477 0.001176 -83.662186 0.001176 340.494171
37 340.494141 -0.000358 -0.000477 0.001175 -84.131546 0.001175 340.494171
38 340.494141 -0.000358 -0.000477 0.001175 -84.600716 0.001175 340.494171
[Rear_Toe3_03]
36 433.103577 0.001431 -0.000238 -179.990036 84.377014 -179.986542 433.103546
37 433.103577 0.001431 -0.000238 -179.992126 83.150948 -179.988632 433.103546
38 433.103577 0.001431 -0.000238 -179.993591 81.924789 -179.990097 433.103546
[Back_Bone]
36 1312.175781 -701.934692 0.000954 -2.791076 2.926607 -88.311546 1488.125488
37 1312.175781 -701.934692 0.000954 -2.984262 3.146260 -88.322662 1488.125488
38 1312.175781 -701.934692 0.000954 -2.769221 3.160883 -87.928482 1488.125488
[Head]
36 1406.159424 809.709290 0.001431 3.923970 -1.133844 -0.271427 1622.625488
37 1406.159424 809.709290 0.001431 3.880910 -0.865933 -0.342743 1622.625488
38 1406.159424 809.709290 0.001431 3.837519 -0.598078 -0.414255 1622.625488
[Motor_Bone]
36 1158.364380 -417.834747 0.000477 5.388104 -1.720919 -107.705574 1231.419434
37 1158.364380 -417.834747 0.000477 -0.064415 0.133392 -105.853745 1231.419434
38 1158.364380 -417.834747 0.000477 -5.513572 1.191229 -104.796593 1231.419434
[Ping_Mechanism]
36 1239.287476 -444.808929 -21.231495 0.000103 -0.000053 82.120995 1316.867188
37 1244.533081 -445.970734 -30.163595 0.000103 -0.000053 82.120995 1322.369995
38 1249.778687 -447.132538 -39.095589 0.000103 -0.000053 82.120995 1327.931763
[BN_LookIK]
36 193.241119 1380.371704 -0.002861 0.000000 89.965736 -31.038179 1393.832153
37 193.241119 1380.371704 -0.002861 0.000000 89.965736 -31.038179 1393.832153
38 193.241119 1380.371704 -0.002861 0.000000 89.965736 -31.038179 1393.832153
[bottomMouth]
36 -435.092926 615.759399 -0.000954 -0.000022 0.000016 73.527184 753.966492
37 -435.092926 615.759399 -0.000954 -0.000022 0.000016 73.527184 753.966492
38 -435.092926 615.759399 -0.000954 -0.000022 0.000016 73.527184 753.966492
[L_Mouth01]
36 554.440979 7.658243 838.222046 150.204178 23.759130 109.605339 1005.027161
37 554.440979 7.658243 838.222046 150.204178 23.759130 109.605339 1005.027161
38 554.440979 7.658243 838.222046 150.204178 23.759130 109.605339 1005.027161
[L_mouthFront]
36 551.629089 934.514771 339.150421 0.000081 2.804060 79.119301 1136.941284
37 551.629089 934.514771 339.150421 0.000081 2.804060 79.119301 1136.941284
38 551.629089 934.514771 339.150421 0.000081 2.804060 79.119301 1136.941284
[mouthGun]
36 55.332661 1627.420898 0.000000 0.000023 0.000009 -11.038128 1628.361328
37 55.332661 1627.420898 0.000000 0.000023 0.000009 -11.038128 1628.361328
38 55.332661 1627.420898 0.000000 0.000023 0.000009 -11.038128 1628.361328
[R_Mouth01]
36 554.442383 7.659197 -838.223938 29.795891 -23.759109 109.605331 1005.029541
37 554.442383 7.659197 -838.223938 29.795891 -23.759109 109.605331 1005.029541
38 554.442383 7.659197 -838.223938 29.795891 -23.759109 109.605331 1005.029541
[R_mouthFront]
36 551.629089 934.514282 -339.151367 0.000029 -2.803930 79.119133 1136.941162
37 551.629089 934.514282 -339.151367 0.000029 -2.803930 79.119133 1136.941162
38 551.629089 934.514282 -339.151367 0.000029 -2.803930 79.119133 1136.941162
[TopMouth]
36 461.269867 -56.106091 -0.008583 -0.000059 -0.000268 92.025169 464.669525
37 461.269867 -56.106091 -0.008583 -0.000059 -0.000268 92.025169 464.669525
38 461.269867 -56.106091 -0.008583 -0.000059 -0.000268 92.025169 464.669525
[weapon_bone]
36 -987.239868 1448.372803 0.001431 0.000000 89.965736 -31.038221 1752.833740
37 -987.239868 1448.372803 0.001431 0.000000 89.965736 -31.038221 1752.833740
38 -987.239868 1448.372803 0.001431 0.000000 89.965736 -31.038221 1752.833740
